# xmcd
#
# Track frame offsets: 
#        150
#        24480
#        51207
#        72967
#        96535
#        116487
#        139772
#        163915
#        189287
#        208142
#
# Disc length: 3102 seconds
#
# Revision: 0
# Processed by: cddbd v1.5.2PL0 Copyright (c) Steve Scherf et al.
# Submitted via: ExactAudioCopy v1.0b3
#
DISCID=920c1c0a
DTITLE=Thanh Tuyen - Ha Buon
DYEAR=1996
DGENRE=
TTITLE0=Chuyen hop tan
TTITLE1=Ha buon
TTITLE2=Canh chim chieu
TTITLE3=Phuong hong
TTITLE4=Co giao tre
TTITLE5=Con do que huong
TTITLE6=Biet dau tim
TTITLE7=Giay phut ta tu
TTITLE8=Phuong buon
TTITLE9=Noi buon hoa phuong
EXTD=
EXTT0=
EXTT1=
EXTT2=
EXTT3=
EXTT4=
EXTT5=
EXTT6=
EXTT7=
EXTT8=
EXTT9=
PLAYORDER=
